External Loads File
version=1
nRows=31
nColumns=13
Range=5.000000e-03-10 seconds
endheader
time 	forceRightX 	forceRightY 	forceRightZ 	pointRightX 	pointRightY 	pointRightZ 	forceLeftX 	forceLeftY 	forceLeftZ 	pointLeftX 	pointLeftY 	pointLeftZ 		
5.005000 62.359902 943.447140 -0.000000 0.336616 0.174147 -0.111345 -8.179304 82.429895 -0.000000 0.207915 0.490418 -0.357834
5.010000 79.051692 893.992873 -0.000000 0.328056 0.169839 -0.111124 -15.529929 100.530727 -0.000000 0.216113 0.495621 -0.357837
5.015000 93.658394 839.651052 -0.000000 0.319217 0.166059 -0.110879 -22.273915 116.712380 -0.000000 0.224377 0.500261 -0.357622
5.020000 106.472322 781.718661 -0.000000 0.310062 0.163010 -0.110694 -28.618497 130.163073 -0.000000 0.232838 0.503995 -0.357631
5.025000 118.248415 721.351379 -0.000000 0.300434 0.160723 -0.110277 -34.674700 140.606306 -0.000000 0.241517 0.507023 -0.357709
5.030000 127.441148 659.949099 -0.000000 0.291002 0.159106 -0.110320 -40.927101 148.024417 -0.000000 0.250193 0.509573 -0.357271
5.035000 135.425125 598.275313 -0.000000 0.281291 0.158136 -0.110253 -47.232085 152.746272 -0.000000 0.258988 0.511725 -0.357102
5.040000 141.975031 537.120593 -0.000000 0.271465 0.158051 -0.110186 -53.686066 155.173934 -0.000000 0.267960 0.512778 -0.357591
5.045000 146.449658 477.227357 -0.000000 0.261667 0.158668 -0.110133 -60.521316 155.763138 -0.000000 0.276708 0.513031 -0.357707
5.050000 149.133371 418.975769 -0.000000 0.251984 0.160025 -0.110230 -67.742692 155.149653 -0.000000 0.285365 0.512458 -0.357782
5.055000 150.218339 362.646337 -0.000000 0.242313 0.162133 -0.110276 -75.376044 154.059571 -0.000000 0.293897 0.511135 -0.357958
5.060000 149.466562 308.656545 -0.000000 0.232873 0.164768 -0.110366 -83.614123 153.156034 -0.000000 0.302229 0.508826 -0.358046
5.065000 146.894847 257.397182 -0.000000 0.223687 0.168206 -0.110427 -92.575136 153.077917 -0.000000 0.310395 0.506260 -0.358044
5.070000 142.751953 209.212765 -0.000000 0.214749 0.172375 -0.110568 -102.256904 154.485817 -0.000000 0.318395 0.502432 -0.358477
5.075000 136.860373 164.840983 -0.000000 0.206141 0.177041 -0.110679 -112.981495 157.774766 -0.000000 0.325998 0.497966 -0.358772
5.080000 129.720295 124.690504 -0.000000 0.197781 0.182050 -0.110734 -124.626098 163.546108 -0.000000 0.333451 0.492554 -0.359182
5.085000 121.608128 89.380415 -0.000000 0.189715 0.187517 -0.110859 -137.312548 172.110588 -0.000000 0.340447 0.486472 -0.359647
5.090000 113.218150 58.946649 -0.000000 0.181947 0.193581 -0.110884 -150.526892 184.130709 -0.000000 0.347334 0.479102 -0.360003
5.095000 104.852660 33.823431 -0.000000 0.174523 0.200243 -0.110988 -164.650589 199.410683 -0.000000 0.353624 0.471855 -0.360368
5.100000 97.144675 13.658618 -0.000000 0.167360 0.207355 -0.111137 -179.185801 218.329877 -0.000000 0.359749 0.464399 -0.360721
5.105000 90.485757 -1.951259 -0.000000 0.160590 0.214884 -0.111216 -193.643433 241.074084 -0.000000 0.365492 0.455913 -0.361061
5.110000 85.103620 -13.491717 -0.000000 0.154102 0.222836 -0.111123 -207.509265 267.592251 -0.000000 0.371131 0.446945 -0.361017
5.115000 81.103834 -21.439287 -0.000000 0.148086 0.231191 -0.111114 -220.627000 297.329778 -0.000000 0.376220 0.437553 -0.361222
5.120000 78.363081 -26.607028 -0.000000 0.142596 0.239914 -0.111052 -231.849542 330.327377 -0.000000 0.380933 0.427132 -0.361256
5.125000 76.704580 -29.416340 -0.000000 0.137513 0.249057 -0.111007 -241.417946 365.547603 -0.000000 0.385302 0.416949 -0.361453
5.130000 75.851142 -30.314694 -0.000000 0.132967 0.258518 -0.111013 -249.490118 402.144961 -0.000000 0.389235 0.407171 -0.361800
5.135000 75.349457 -30.017521 -0.000000 0.129107 0.268242 -0.110834 -254.237813 440.603578 -0.000000 0.392846 0.396398 -0.362289
5.140000 74.962107 -28.763549 -0.000000 0.125775 0.278274 -0.110822 -255.571698 480.368078 -0.000000 0.395891 0.384998 -0.362990
5.145000 74.633932 -26.547013 -0.000000 0.122994 0.288541 -0.110884 -254.795595 520.390421 -0.000000 0.398295 0.373861 -0.363060
5.150000 74.292166 -23.552956 -0.000000 0.120866 0.298977 -0.110893 -252.155043 560.460013 -0.000000 0.400256 0.362945 -0.362941
5.155000 73.783851 -20.272078 -0.000000 0.119279 0.309583 -0.110922 -245.596412 601.430785 -0.000000 0.401867 0.351083 -0.362825
